<?xml version="1.0" encoding="UTF-8"?>
<svg xmlns="http://www.w3.org/2000/svg" width="330" height="330" viewBox="0 0 330 330">
  <rect x="0" y="0" width="330" height="330" fill="#ffffff"/>
  <rect x="20" y="20" width="10" height="10" fill="#000000"/>
  <rect x="30" y="20" width="10" height="10" fill="#000000"/>
  <rect x="40" y="20" width="10" height="10" fill="#000000"/>
  <rect x="50" y="20" width="10" height="10" fill="#000000"/>
  <rect x="60" y="20" width="10" height="10" fill="#000000"/>
  <rect x="70" y="20" width="10" height="10" fill="#000000"/>
  <rect x="80" y="20" width="10" height="10" fill="#000000"/>
  <rect x="110" y="20" width="10" height="10" fill="#000000"/>
  <rect x="130" y="20" width="10" height="10" fill="#000000"/>
  <rect x="190" y="20" width="10" height="10" fill="#000000"/>
  <rect x="200" y="20" width="10" height="10" fill="#000000"/>
  <rect x="210" y="20" width="10" height="10" fill="#000000"/>
  <rect x="240" y="20" width="10" height="10" fill="#000000"/>
  <rect x="250" y="20" width="10" height="10" fill="#000000"/>
  <rect x="260" y="20" width="10" height="10" fill="#000000"/>
  <rect x="270" y="20" width="10" height="10" fill="#000000"/>
  <rect x="280" y="20" width="10" height="10" fill="#000000"/>
  <rect x="290" y="20" width="10" height="10" fill="#000000"/>
  <rect x="300" y="20" width="10" height="10" fill="#000000"/>
  <rect x="20" y="30" width="10" height="10" fill="#000000"/>
  <rect x="80" y="30" width="10" height="10" fill="#000000"/>
  <rect x="110" y="30" width="10" height="10" fill="#000000"/>
  <rect x="120" y="30" width="10" height="10" fill="#000000"/>
  <rect x="130" y="30" width="10" height="10" fill="#000000"/>
  <rect x="150" y="30" width="10" height="10" fill="#000000"/>
  <rect x="160" y="30" width="10" height="10" fill="#000000"/>
  <rect x="220" y="30" width="10" height="10" fill="#000000"/>
  <rect x="240" y="30" width="10" height="10" fill="#000000"/>
  <rect x="300" y="30" width="10" height="10" fill="#000000"/>
  <rect x="20" y="40" width="10" height="10" fill="#000000"/>
  <rect x="40" y="40" width="10" height="10" fill="#000000"/>
  <rect x="50" y="40" width="10" height="10" fill="#000000"/>
  <rect x="60" y="40" width="10" height="10" fill="#000000"/>
  <rect x="80" y="40" width="10" height="10" fill="#000000"/>
  <rect x="100" y="40" width="10" height="10" fill="#000000"/>
  <rect x="120" y="40" width="10" height="10" fill="#000000"/>
  <rect x="130" y="40" width="10" height="10" fill="#000000"/>
  <rect x="140" y="40" width="10" height="10" fill="#000000"/>
  <rect x="160" y="40" width="10" height="10" fill="#000000"/>
  <rect x="170" y="40" width="10" height="10" fill="#000000"/>
  <rect x="200" y="40" width="10" height="10" fill="#000000"/>
  <rect x="220" y="40" width="10" height="10" fill="#000000"/>
  <rect x="240" y="40" width="10" height="10" fill="#000000"/>
  <rect x="260" y="40" width="10" height="10" fill="#000000"/>
  <rect x="270" y="40" width="10" height="10" fill="#000000"/>
  <rect x="280" y="40" width="10" height="10" fill="#000000"/>
  <rect x="300" y="40" width="10" height="10" fill="#000000"/>
  <rect x="20" y="50" width="10" height="10" fill="#000000"/>
  <rect x="40" y="50" width="10" height="10" fill="#000000"/>
  <rect x="50" y="50" width="10" height="10" fill="#000000"/>
  <rect x="60" y="50" width="10" height="10" fill="#000000"/>
  <rect x="80" y="50" width="10" height="10" fill="#000000"/>
  <rect x="100" y="50" width="10" height="10" fill="#000000"/>
  <rect x="130" y="50" width="10" height="10" fill="#000000"/>
  <rect x="140" y="50" width="10" height="10" fill="#000000"/>
  <rect x="150" y="50" width="10" height="10" fill="#000000"/>
  <rect x="160" y="50" width="10" height="10" fill="#000000"/>
  <rect x="180" y="50" width="10" height="10" fill="#000000"/>
  <rect x="190" y="50" width="10" height="10" fill="#000000"/>
  <rect x="210" y="50" width="10" height="10" fill="#000000"/>
  <rect x="240" y="50" width="10" height="10" fill="#000000"/>
  <rect x="260" y="50" width="10" height="10" fill="#000000"/>
  <rect x="270" y="50" width="10" height="10" fill="#000000"/>
  <rect x="280" y="50" width="10" height="10" fill="#000000"/>
  <rect x="300" y="50" width="10" height="10" fill="#000000"/>
  <rect x="20" y="60" width="10" height="10" fill="#000000"/>
  <rect x="40" y="60" width="10" height="10" fill="#000000"/>
  <rect x="50" y="60" width="10" height="10" fill="#000000"/>
  <rect x="60" y="60" width="10" height="10" fill="#000000"/>
  <rect x="80" y="60" width="10" height="10" fill="#000000"/>
  <rect x="110" y="60" width="10" height="10" fill="#000000"/>
  <rect x="130" y="60" width="10" height="10" fill="#000000"/>
  <rect x="140" y="60" width="10" height="10" fill="#000000"/>
  <rect x="150" y="60" width="10" height="10" fill="#000000"/>
  <rect x="160" y="60" width="10" height="10" fill="#000000"/>
  <rect x="180" y="60" width="10" height="10" fill="#000000"/>
  <rect x="190" y="60" width="10" height="10" fill="#000000"/>
  <rect x="210" y="60" width="10" height="10" fill="#000000"/>
  <rect x="240" y="60" width="10" height="10" fill="#000000"/>
  <rect x="260" y="60" width="10" height="10" fill="#000000"/>
  <rect x="270" y="60" width="10" height="10" fill="#000000"/>
  <rect x="280" y="60" width="10" height="10" fill="#000000"/>
  <rect x="300" y="60" width="10" height="10" fill="#000000"/>
  <rect x="20" y="70" width="10" height="10" fill="#000000"/>
  <rect x="80" y="70" width="10" height="10" fill="#000000"/>
  <rect x="170" y="70" width="10" height="10" fill="#000000"/>
  <rect x="190" y="70" width="10" height="10" fill="#000000"/>
  <rect x="200" y="70" width="10" height="10" fill="#000000"/>
  <rect x="240" y="70" width="10" height="10" fill="#000000"/>
  <rect x="300" y="70" width="10" height="10" fill="#000000"/>
  <rect x="20" y="80" width="10" height="10" fill="#000000"/>
  <rect x="30" y="80" width="10" height="10" fill="#000000"/>
  <rect x="40" y="80" width="10" height="10" fill="#000000"/>
  <rect x="50" y="80" width="10" height="10" fill="#000000"/>
  <rect x="60" y="80" width="10" height="10" fill="#000000"/>
  <rect x="70" y="80" width="10" height="10" fill="#000000"/>
  <rect x="80" y="80" width="10" height="10" fill="#000000"/>
  <rect x="100" y="80" width="10" height="10" fill="#000000"/>
  <rect x="120" y="80" width="10" height="10" fill="#000000"/>
  <rect x="140" y="80" width="10" height="10" fill="#000000"/>
  <rect x="160" y="80" width="10" height="10" fill="#000000"/>
  <rect x="180" y="80" width="10" height="10" fill="#000000"/>
  <rect x="200" y="80" width="10" height="10" fill="#000000"/>
  <rect x="220" y="80" width="10" height="10" fill="#000000"/>
  <rect x="240" y="80" width="10" height="10" fill="#000000"/>
  <rect x="250" y="80" width="10" height="10" fill="#000000"/>
  <rect x="260" y="80" width="10" height="10" fill="#000000"/>
  <rect x="270" y="80" width="10" height="10" fill="#000000"/>
  <rect x="280" y="80" width="10" height="10" fill="#000000"/>
  <rect x="290" y="80" width="10" height="10" fill="#000000"/>
  <rect x="300" y="80" width="10" height="10" fill="#000000"/>
  <rect x="110" y="90" width="10" height="10" fill="#000000"/>
  <rect x="130" y="90" width="10" height="10" fill="#000000"/>
  <rect x="140" y="90" width="10" height="10" fill="#000000"/>
  <rect x="150" y="90" width="10" height="10" fill="#000000"/>
  <rect x="160" y="90" width="10" height="10" fill="#000000"/>
  <rect x="180" y="90" width="10" height="10" fill="#000000"/>
  <rect x="210" y="90" width="10" height="10" fill="#000000"/>
  <rect x="50" y="100" width="10" height="10" fill="#000000"/>
  <rect x="60" y="100" width="10" height="10" fill="#000000"/>
  <rect x="80" y="100" width="10" height="10" fill="#000000"/>
  <rect x="90" y="100" width="10" height="10" fill="#000000"/>
  <rect x="120" y="100" width="10" height="10" fill="#000000"/>
  <rect x="130" y="100" width="10" height="10" fill="#000000"/>
  <rect x="150" y="100" width="10" height="10" fill="#000000"/>
  <rect x="180" y="100" width="10" height="10" fill="#000000"/>
  <rect x="200" y="100" width="10" height="10" fill="#000000"/>
  <rect x="210" y="100" width="10" height="10" fill="#000000"/>
  <rect x="220" y="100" width="10" height="10" fill="#000000"/>
  <rect x="270" y="100" width="10" height="10" fill="#000000"/>
  <rect x="280" y="100" width="10" height="10" fill="#000000"/>
  <rect x="20" y="110" width="10" height="10" fill="#000000"/>
  <rect x="40" y="110" width="10" height="10" fill="#000000"/>
  <rect x="70" y="110" width="10" height="10" fill="#000000"/>
  <rect x="90" y="110" width="10" height="10" fill="#000000"/>
  <rect x="110" y="110" width="10" height="10" fill="#000000"/>
  <rect x="160" y="110" width="10" height="10" fill="#000000"/>
  <rect x="170" y="110" width="10" height="10" fill="#000000"/>
  <rect x="220" y="110" width="10" height="10" fill="#000000"/>
  <rect x="230" y="110" width="10" height="10" fill="#000000"/>
  <rect x="240" y="110" width="10" height="10" fill="#000000"/>
  <rect x="260" y="110" width="10" height="10" fill="#000000"/>
  <rect x="270" y="110" width="10" height="10" fill="#000000"/>
  <rect x="280" y="110" width="10" height="10" fill="#000000"/>
  <rect x="290" y="110" width="10" height="10" fill="#000000"/>
  <rect x="30" y="120" width="10" height="10" fill="#000000"/>
  <rect x="40" y="120" width="10" height="10" fill="#000000"/>
  <rect x="50" y="120" width="10" height="10" fill="#000000"/>
  <rect x="60" y="120" width="10" height="10" fill="#000000"/>
  <rect x="70" y="120" width="10" height="10" fill="#000000"/>
  <rect x="80" y="120" width="10" height="10" fill="#000000"/>
  <rect x="90" y="120" width="10" height="10" fill="#000000"/>
  <rect x="100" y="120" width="10" height="10" fill="#000000"/>
  <rect x="130" y="120" width="10" height="10" fill="#000000"/>
  <rect x="160" y="120" width="10" height="10" fill="#000000"/>
  <rect x="200" y="120" width="10" height="10" fill="#000000"/>
  <rect x="230" y="120" width="10" height="10" fill="#000000"/>
  <rect x="240" y="120" width="10" height="10" fill="#000000"/>
  <rect x="260" y="120" width="10" height="10" fill="#000000"/>
  <rect x="280" y="120" width="10" height="10" fill="#000000"/>
  <rect x="40" y="130" width="10" height="10" fill="#000000"/>
  <rect x="50" y="130" width="10" height="10" fill="#000000"/>
  <rect x="100" y="130" width="10" height="10" fill="#000000"/>
  <rect x="120" y="130" width="10" height="10" fill="#000000"/>
  <rect x="150" y="130" width="10" height="10" fill="#000000"/>
  <rect x="170" y="130" width="10" height="10" fill="#000000"/>
  <rect x="180" y="130" width="10" height="10" fill="#000000"/>
  <rect x="200" y="130" width="10" height="10" fill="#000000"/>
  <rect x="250" y="130" width="10" height="10" fill="#000000"/>
  <rect x="260" y="130" width="10" height="10" fill="#000000"/>
  <rect x="270" y="130" width="10" height="10" fill="#000000"/>
  <rect x="300" y="130" width="10" height="10" fill="#000000"/>
  <rect x="40" y="140" width="10" height="10" fill="#000000"/>
  <rect x="80" y="140" width="10" height="10" fill="#000000"/>
  <rect x="90" y="140" width="10" height="10" fill="#000000"/>
  <rect x="100" y="140" width="10" height="10" fill="#000000"/>
  <rect x="120" y="140" width="10" height="10" fill="#000000"/>
  <rect x="130" y="140" width="10" height="10" fill="#000000"/>
  <rect x="140" y="140" width="10" height="10" fill="#000000"/>
  <rect x="150" y="140" width="10" height="10" fill="#000000"/>
  <rect x="160" y="140" width="10" height="10" fill="#000000"/>
  <rect x="170" y="140" width="10" height="10" fill="#000000"/>
  <rect x="210" y="140" width="10" height="10" fill="#000000"/>
  <rect x="230" y="140" width="10" height="10" fill="#000000"/>
  <rect x="240" y="140" width="10" height="10" fill="#000000"/>
  <rect x="270" y="140" width="10" height="10" fill="#000000"/>
  <rect x="290" y="140" width="10" height="10" fill="#000000"/>
  <rect x="20" y="150" width="10" height="10" fill="#000000"/>
  <rect x="30" y="150" width="10" height="10" fill="#000000"/>
  <rect x="40" y="150" width="10" height="10" fill="#000000"/>
  <rect x="90" y="150" width="10" height="10" fill="#000000"/>
  <rect x="110" y="150" width="10" height="10" fill="#000000"/>
  <rect x="120" y="150" width="10" height="10" fill="#000000"/>
  <rect x="240" y="150" width="10" height="10" fill="#000000"/>
  <rect x="260" y="150" width="10" height="10" fill="#000000"/>
  <rect x="280" y="150" width="10" height="10" fill="#000000"/>
  <rect x="300" y="150" width="10" height="10" fill="#000000"/>
  <rect x="20" y="160" width="10" height="10" fill="#000000"/>
  <rect x="40" y="160" width="10" height="10" fill="#000000"/>
  <rect x="80" y="160" width="10" height="10" fill="#000000"/>
  <rect x="130" y="160" width="10" height="10" fill="#000000"/>
  <rect x="180" y="160" width="10" height="10" fill="#000000"/>
  <rect x="190" y="160" width="10" height="10" fill="#000000"/>
  <rect x="210" y="160" width="10" height="10" fill="#000000"/>
  <rect x="250" y="160" width="10" height="10" fill="#000000"/>
  <rect x="270" y="160" width="10" height="10" fill="#000000"/>
  <rect x="300" y="160" width="10" height="10" fill="#000000"/>
  <rect x="30" y="170" width="10" height="10" fill="#000000"/>
  <rect x="40" y="170" width="10" height="10" fill="#000000"/>
  <rect x="60" y="170" width="10" height="10" fill="#000000"/>
  <rect x="100" y="170" width="10" height="10" fill="#000000"/>
  <rect x="110" y="170" width="10" height="10" fill="#000000"/>
  <rect x="140" y="170" width="10" height="10" fill="#000000"/>
  <rect x="160" y="170" width="10" height="10" fill="#000000"/>
  <rect x="170" y="170" width="10" height="10" fill="#000000"/>
  <rect x="180" y="170" width="10" height="10" fill="#000000"/>
  <rect x="190" y="170" width="10" height="10" fill="#000000"/>
  <rect x="200" y="170" width="10" height="10" fill="#000000"/>
  <rect x="220" y="170" width="10" height="10" fill="#000000"/>
  <rect x="260" y="170" width="10" height="10" fill="#000000"/>
  <rect x="270" y="170" width="10" height="10" fill="#000000"/>
  <rect x="280" y="170" width="10" height="10" fill="#000000"/>
  <rect x="40" y="180" width="10" height="10" fill="#000000"/>
  <rect x="60" y="180" width="10" height="10" fill="#000000"/>
  <rect x="70" y="180" width="10" height="10" fill="#000000"/>
  <rect x="80" y="180" width="10" height="10" fill="#000000"/>
  <rect x="90" y="180" width="10" height="10" fill="#000000"/>
  <rect x="110" y="180" width="10" height="10" fill="#000000"/>
  <rect x="130" y="180" width="10" height="10" fill="#000000"/>
  <rect x="150" y="180" width="10" height="10" fill="#000000"/>
  <rect x="160" y="180" width="10" height="10" fill="#000000"/>
  <rect x="180" y="180" width="10" height="10" fill="#000000"/>
  <rect x="190" y="180" width="10" height="10" fill="#000000"/>
  <rect x="210" y="180" width="10" height="10" fill="#000000"/>
  <rect x="220" y="180" width="10" height="10" fill="#000000"/>
  <rect x="240" y="180" width="10" height="10" fill="#000000"/>
  <rect x="250" y="180" width="10" height="10" fill="#000000"/>
  <rect x="260" y="180" width="10" height="10" fill="#000000"/>
  <rect x="270" y="180" width="10" height="10" fill="#000000"/>
  <rect x="300" y="180" width="10" height="10" fill="#000000"/>
  <rect x="20" y="190" width="10" height="10" fill="#000000"/>
  <rect x="40" y="190" width="10" height="10" fill="#000000"/>
  <rect x="60" y="190" width="10" height="10" fill="#000000"/>
  <rect x="150" y="190" width="10" height="10" fill="#000000"/>
  <rect x="220" y="190" width="10" height="10" fill="#000000"/>
  <rect x="240" y="190" width="10" height="10" fill="#000000"/>
  <rect x="270" y="190" width="10" height="10" fill="#000000"/>
  <rect x="20" y="200" width="10" height="10" fill="#000000"/>
  <rect x="30" y="200" width="10" height="10" fill="#000000"/>
  <rect x="60" y="200" width="10" height="10" fill="#000000"/>
  <rect x="80" y="200" width="10" height="10" fill="#000000"/>
  <rect x="90" y="200" width="10" height="10" fill="#000000"/>
  <rect x="130" y="200" width="10" height="10" fill="#000000"/>
  <rect x="150" y="200" width="10" height="10" fill="#000000"/>
  <rect x="160" y="200" width="10" height="10" fill="#000000"/>
  <rect x="170" y="200" width="10" height="10" fill="#000000"/>
  <rect x="200" y="200" width="10" height="10" fill="#000000"/>
  <rect x="220" y="200" width="10" height="10" fill="#000000"/>
  <rect x="250" y="200" width="10" height="10" fill="#000000"/>
  <rect x="280" y="200" width="10" height="10" fill="#000000"/>
  <rect x="300" y="200" width="10" height="10" fill="#000000"/>
  <rect x="20" y="210" width="10" height="10" fill="#000000"/>
  <rect x="30" y="210" width="10" height="10" fill="#000000"/>
  <rect x="40" y="210" width="10" height="10" fill="#000000"/>
  <rect x="50" y="210" width="10" height="10" fill="#000000"/>
  <rect x="70" y="210" width="10" height="10" fill="#000000"/>
  <rect x="110" y="210" width="10" height="10" fill="#000000"/>
  <rect x="150" y="210" width="10" height="10" fill="#000000"/>
  <rect x="160" y="210" width="10" height="10" fill="#000000"/>
  <rect x="180" y="210" width="10" height="10" fill="#000000"/>
  <rect x="190" y="210" width="10" height="10" fill="#000000"/>
  <rect x="200" y="210" width="10" height="10" fill="#000000"/>
  <rect x="230" y="210" width="10" height="10" fill="#000000"/>
  <rect x="240" y="210" width="10" height="10" fill="#000000"/>
  <rect x="250" y="210" width="10" height="10" fill="#000000"/>
  <rect x="280" y="210" width="10" height="10" fill="#000000"/>
  <rect x="20" y="220" width="10" height="10" fill="#000000"/>
  <rect x="30" y="220" width="10" height="10" fill="#000000"/>
  <rect x="40" y="220" width="10" height="10" fill="#000000"/>
  <rect x="50" y="220" width="10" height="10" fill="#000000"/>
  <rect x="80" y="220" width="10" height="10" fill="#000000"/>
  <rect x="90" y="220" width="10" height="10" fill="#000000"/>
  <rect x="110" y="220" width="10" height="10" fill="#000000"/>
  <rect x="130" y="220" width="10" height="10" fill="#000000"/>
  <rect x="140" y="220" width="10" height="10" fill="#000000"/>
  <rect x="180" y="220" width="10" height="10" fill="#000000"/>
  <rect x="200" y="220" width="10" height="10" fill="#000000"/>
  <rect x="220" y="220" width="10" height="10" fill="#000000"/>
  <rect x="230" y="220" width="10" height="10" fill="#000000"/>
  <rect x="240" y="220" width="10" height="10" fill="#000000"/>
  <rect x="250" y="220" width="10" height="10" fill="#000000"/>
  <rect x="260" y="220" width="10" height="10" fill="#000000"/>
  <rect x="280" y="220" width="10" height="10" fill="#000000"/>
  <rect x="290" y="220" width="10" height="10" fill="#000000"/>
  <rect x="300" y="220" width="10" height="10" fill="#000000"/>
  <rect x="100" y="230" width="10" height="10" fill="#000000"/>
  <rect x="130" y="230" width="10" height="10" fill="#000000"/>
  <rect x="140" y="230" width="10" height="10" fill="#000000"/>
  <rect x="150" y="230" width="10" height="10" fill="#000000"/>
  <rect x="170" y="230" width="10" height="10" fill="#000000"/>
  <rect x="200" y="230" width="10" height="10" fill="#000000"/>
  <rect x="220" y="230" width="10" height="10" fill="#000000"/>
  <rect x="260" y="230" width="10" height="10" fill="#000000"/>
  <rect x="270" y="230" width="10" height="10" fill="#000000"/>
  <rect x="280" y="230" width="10" height="10" fill="#000000"/>
  <rect x="20" y="240" width="10" height="10" fill="#000000"/>
  <rect x="30" y="240" width="10" height="10" fill="#000000"/>
  <rect x="40" y="240" width="10" height="10" fill="#000000"/>
  <rect x="50" y="240" width="10" height="10" fill="#000000"/>
  <rect x="60" y="240" width="10" height="10" fill="#000000"/>
  <rect x="70" y="240" width="10" height="10" fill="#000000"/>
  <rect x="80" y="240" width="10" height="10" fill="#000000"/>
  <rect x="100" y="240" width="10" height="10" fill="#000000"/>
  <rect x="120" y="240" width="10" height="10" fill="#000000"/>
  <rect x="130" y="240" width="10" height="10" fill="#000000"/>
  <rect x="190" y="240" width="10" height="10" fill="#000000"/>
  <rect x="210" y="240" width="10" height="10" fill="#000000"/>
  <rect x="220" y="240" width="10" height="10" fill="#000000"/>
  <rect x="240" y="240" width="10" height="10" fill="#000000"/>
  <rect x="260" y="240" width="10" height="10" fill="#000000"/>
  <rect x="280" y="240" width="10" height="10" fill="#000000"/>
  <rect x="290" y="240" width="10" height="10" fill="#000000"/>
  <rect x="20" y="250" width="10" height="10" fill="#000000"/>
  <rect x="80" y="250" width="10" height="10" fill="#000000"/>
  <rect x="130" y="250" width="10" height="10" fill="#000000"/>
  <rect x="140" y="250" width="10" height="10" fill="#000000"/>
  <rect x="150" y="250" width="10" height="10" fill="#000000"/>
  <rect x="180" y="250" width="10" height="10" fill="#000000"/>
  <rect x="210" y="250" width="10" height="10" fill="#000000"/>
  <rect x="220" y="250" width="10" height="10" fill="#000000"/>
  <rect x="260" y="250" width="10" height="10" fill="#000000"/>
  <rect x="270" y="250" width="10" height="10" fill="#000000"/>
  <rect x="290" y="250" width="10" height="10" fill="#000000"/>
  <rect x="300" y="250" width="10" height="10" fill="#000000"/>
  <rect x="20" y="260" width="10" height="10" fill="#000000"/>
  <rect x="40" y="260" width="10" height="10" fill="#000000"/>
  <rect x="50" y="260" width="10" height="10" fill="#000000"/>
  <rect x="60" y="260" width="10" height="10" fill="#000000"/>
  <rect x="80" y="260" width="10" height="10" fill="#000000"/>
  <rect x="100" y="260" width="10" height="10" fill="#000000"/>
  <rect x="110" y="260" width="10" height="10" fill="#000000"/>
  <rect x="140" y="260" width="10" height="10" fill="#000000"/>
  <rect x="150" y="260" width="10" height="10" fill="#000000"/>
  <rect x="170" y="260" width="10" height="10" fill="#000000"/>
  <rect x="180" y="260" width="10" height="10" fill="#000000"/>
  <rect x="200" y="260" width="10" height="10" fill="#000000"/>
  <rect x="210" y="260" width="10" height="10" fill="#000000"/>
  <rect x="220" y="260" width="10" height="10" fill="#000000"/>
  <rect x="230" y="260" width="10" height="10" fill="#000000"/>
  <rect x="240" y="260" width="10" height="10" fill="#000000"/>
  <rect x="250" y="260" width="10" height="10" fill="#000000"/>
  <rect x="260" y="260" width="10" height="10" fill="#000000"/>
  <rect x="290" y="260" width="10" height="10" fill="#000000"/>
  <rect x="20" y="270" width="10" height="10" fill="#000000"/>
  <rect x="40" y="270" width="10" height="10" fill="#000000"/>
  <rect x="50" y="270" width="10" height="10" fill="#000000"/>
  <rect x="60" y="270" width="10" height="10" fill="#000000"/>
  <rect x="80" y="270" width="10" height="10" fill="#000000"/>
  <rect x="100" y="270" width="10" height="10" fill="#000000"/>
  <rect x="110" y="270" width="10" height="10" fill="#000000"/>
  <rect x="130" y="270" width="10" height="10" fill="#000000"/>
  <rect x="150" y="270" width="10" height="10" fill="#000000"/>
  <rect x="170" y="270" width="10" height="10" fill="#000000"/>
  <rect x="200" y="270" width="10" height="10" fill="#000000"/>
  <rect x="250" y="270" width="10" height="10" fill="#000000"/>
  <rect x="280" y="270" width="10" height="10" fill="#000000"/>
  <rect x="290" y="270" width="10" height="10" fill="#000000"/>
  <rect x="20" y="280" width="10" height="10" fill="#000000"/>
  <rect x="40" y="280" width="10" height="10" fill="#000000"/>
  <rect x="50" y="280" width="10" height="10" fill="#000000"/>
  <rect x="60" y="280" width="10" height="10" fill="#000000"/>
  <rect x="80" y="280" width="10" height="10" fill="#000000"/>
  <rect x="150" y="280" width="10" height="10" fill="#000000"/>
  <rect x="170" y="280" width="10" height="10" fill="#000000"/>
  <rect x="220" y="280" width="10" height="10" fill="#000000"/>
  <rect x="230" y="280" width="10" height="10" fill="#000000"/>
  <rect x="250" y="280" width="10" height="10" fill="#000000"/>
  <rect x="260" y="280" width="10" height="10" fill="#000000"/>
  <rect x="270" y="280" width="10" height="10" fill="#000000"/>
  <rect x="280" y="280" width="10" height="10" fill="#000000"/>
  <rect x="290" y="280" width="10" height="10" fill="#000000"/>
  <rect x="300" y="280" width="10" height="10" fill="#000000"/>
  <rect x="20" y="290" width="10" height="10" fill="#000000"/>
  <rect x="80" y="290" width="10" height="10" fill="#000000"/>
  <rect x="130" y="290" width="10" height="10" fill="#000000"/>
  <rect x="150" y="290" width="10" height="10" fill="#000000"/>
  <rect x="160" y="290" width="10" height="10" fill="#000000"/>
  <rect x="170" y="290" width="10" height="10" fill="#000000"/>
  <rect x="180" y="290" width="10" height="10" fill="#000000"/>
  <rect x="200" y="290" width="10" height="10" fill="#000000"/>
  <rect x="210" y="290" width="10" height="10" fill="#000000"/>
  <rect x="220" y="290" width="10" height="10" fill="#000000"/>
  <rect x="240" y="290" width="10" height="10" fill="#000000"/>
  <rect x="260" y="290" width="10" height="10" fill="#000000"/>
  <rect x="280" y="290" width="10" height="10" fill="#000000"/>
  <rect x="300" y="290" width="10" height="10" fill="#000000"/>
  <rect x="20" y="300" width="10" height="10" fill="#000000"/>
  <rect x="30" y="300" width="10" height="10" fill="#000000"/>
  <rect x="40" y="300" width="10" height="10" fill="#000000"/>
  <rect x="50" y="300" width="10" height="10" fill="#000000"/>
  <rect x="60" y="300" width="10" height="10" fill="#000000"/>
  <rect x="70" y="300" width="10" height="10" fill="#000000"/>
  <rect x="80" y="300" width="10" height="10" fill="#000000"/>
  <rect x="120" y="300" width="10" height="10" fill="#000000"/>
  <rect x="180" y="300" width="10" height="10" fill="#000000"/>
  <rect x="200" y="300" width="10" height="10" fill="#000000"/>
  <rect x="220" y="300" width="10" height="10" fill="#000000"/>
  <rect x="250" y="300" width="10" height="10" fill="#000000"/>
  <rect x="260" y="300" width="10" height="10" fill="#000000"/>
  <rect x="280" y="300" width="10" height="10" fill="#000000"/>
</svg>
